<svg xmlns="http://www.w3.org/2000/svg" viewBox="0 0 360 360" fill="none" stroke="currentColor" stroke-width=".8"><circle cx="180" cy="180" r="120" opacity=".5"/><path d="M322 180h5" transform="rotate(0 180 180)"/><path d="M322 180h2" transform="rotate(4.286 180 180)"/><path d="M322 180h2" transform="rotate(8.571 180 180)"/><path d="M322 180h2" transform="rotate(12.857 180 180)"/><path d="M322 180h2" transform="rotate(17.143 180 180)"/><path d="M322 180h2" transform="rotate(21.429 180 180)"/><path d="M322 180h2" transform="rotate(25.714 180 180)"/><path d="M322 180h5" transform="rotate(30 180 180)"/><path d="M322 180h2" transform="rotate(34.286 180 180)"/><path d="M322 180h2" transform="rotate(38.571 180 180)"/><path d="M322 180h2" transform="rotate(42.857 180 180)"/><path d="M322 180h2" transform="rotate(47.143 180 180)"/><path d="M322 180h2" transform="rotate(51.429 180 180)"/><path d="M322 180h2" transform="rotate(55.714 180 180)"/><path d="M322 180h5" transform="rotate(60 180 180)"/><path d="M322 180h2" transform="rotate(64.286 180 180)"/><path d="M322 180h2" transform="rotate(68.571 180 180)"/><path d="M322 180h2" transform="rotate(72.857 180 180)"/><path d="M322 180h2" transform="rotate(77.143 180 180)"/><path d="M322 180h2" transform="rotate(81.429 180 180)"/><path d="M322 180h2" transform="rotate(85.714 180 180)"/><path d="M322 180h5" transform="rotate(90 180 180)"/><path d="M322 180h2" transform="rotate(94.286 180 180)"/><path d="M322 180h2" transform="rotate(98.571 180 180)"/><path d="M322 180h2" transform="rotate(102.857 180 180)"/><path d="M322 180h2" transform="rotate(107.143 180 180)"/><path d="M322 180h2" transform="rotate(111.429 180 180)"/><path d="M322 180h2" transform="rotate(115.714 180 180)"/><path d="M322 180h5" transform="rotate(120 180 180)"/><path d="M322 180h2" transform="rotate(124.286 180 180)"/><path d="M322 180h2" transform="rotate(128.571 180 180)"/><path d="M322 180h2" transform="rotate(132.857 180 180)"/><path d="M322 180h2" transform="rotate(137.143 180 180)"/><path d="M322 180h2" transform="rotate(141.429 180 180)"/><path d="M322 180h2" transform="rotate(145.714 180 180)"/><path d="M322 180h5" transform="rotate(150 180 180)"/><path d="M322 180h2" transform="rotate(154.286 180 180)"/><path d="M322 180h2" transform="rotate(158.571 180 180)"/><path d="M322 180h2" transform="rotate(162.857 180 180)"/><path d="M322 180h2" transform="rotate(167.143 180 180)"/><path d="M322 180h2" transform="rotate(171.429 180 180)"/><path d="M322 180h2" transform="rotate(175.714 180 180)"/><path d="M322 180h5" transform="rotate(180 180 180)"/><path d="M322 180h2" transform="rotate(184.286 180 180)"/><path d="M322 180h2" transform="rotate(188.571 180 180)"/><path d="M322 180h2" transform="rotate(192.857 180 180)"/><path d="M322 180h2" transform="rotate(197.143 180 180)"/><path d="M322 180h2" transform="rotate(201.429 180 180)"/><path d="M322 180h2" transform="rotate(205.714 180 180)"/><path d="M322 180h5" transform="rotate(210 180 180)"/><path d="M322 180h2" transform="rotate(214.286 180 180)"/><path d="M322 180h2" transform="rotate(218.571 180 180)"/><path d="M322 180h2" transform="rotate(222.857 180 180)"/><path d="M322 180h2" transform="rotate(227.143 180 180)"/><path d="M322 180h2" transform="rotate(231.429 180 180)"/><path d="M322 180h2" transform="rotate(235.714 180 180)"/><path d="M322 180h5" transform="rotate(240 180 180)"/><path d="M322 180h2" transform="rotate(244.286 180 180)"/><path d="M322 180h2" transform="rotate(248.571 180 180)"/><path d="M322 180h2" transform="rotate(252.857 180 180)"/><path d="M322 180h2" transform="rotate(257.143 180 180)"/><path d="M322 180h2" transform="rotate(261.429 180 180)"/><path d="M322 180h2" transform="rotate(265.714 180 180)"/><path d="M322 180h5" transform="rotate(270 180 180)"/><path d="M322 180h2" transform="rotate(274.286 180 180)"/><path d="M322 180h2" transform="rotate(278.571 180 180)"/><path d="M322 180h2" transform="rotate(282.857 180 180)"/><path d="M322 180h2" transform="rotate(287.143 180 180)"/><path d="M322 180h2" transform="rotate(291.429 180 180)"/><path d="M322 180h2" transform="rotate(295.714 180 180)"/><path d="M322 180h5" transform="rotate(300 180 180)"/><path d="M322 180h2" transform="rotate(304.286 180 180)"/><path d="M322 180h2" transform="rotate(308.571 180 180)"/><path d="M322 180h2" transform="rotate(312.857 180 180)"/><path d="M322 180h2" transform="rotate(317.143 180 180)"/><path d="M322 180h2" transform="rotate(321.429 180 180)"/><path d="M322 180h2" transform="rotate(325.714 180 180)"/><path d="M322 180h5" transform="rotate(330 180 180)"/><path d="M322 180h2" transform="rotate(334.286 180 180)"/><path d="M322 180h2" transform="rotate(338.571 180 180)"/><path d="M322 180h2" transform="rotate(342.857 180 180)"/><path d="M322 180h2" transform="rotate(347.143 180 180)"/><path d="M322 180h2" transform="rotate(351.429 180 180)"/><path d="M322 180h2" transform="rotate(355.714 180 180)"/></svg>
