<svg xmlns="http://www.w3.org/2000/svg" viewBox="0 0 160 160" role="img" aria-labelledby="title desc">
  <title id="title">Kurdistan Protocol Compiler mark</title>
  <desc id="desc">Abstract layered relay transport mark</desc>
  <defs>
    <linearGradient id="g" x1="16" x2="144" y1="144" y2="16" gradientUnits="userSpaceOnUse">
      <stop offset="0" stop-color="#2dd4bf"/>
      <stop offset=".55" stop-color="#60a5fa"/>
      <stop offset="1" stop-color="#a78bfa"/>
    </linearGradient>
  </defs>
  <rect x="14" y="14" width="132" height="132" rx="28" fill="#101826" stroke="url(#g)" stroke-width="4"/>
  <path d="M42 48h49c17 0 28 10 28 25 0 12-7 21-19 25l23 34H93l-20-31H66v31H42V48Zm24 22v13h22c5 0 8-3 8-7s-3-6-8-6H66Z" fill="url(#g)"/>
  <path d="M38 38h84M38 122h84M32 61h18M110 99h18" stroke="#dbeafe" stroke-width="5" stroke-linecap="round" opacity=".72"/>
</svg>
